<svg xmlns="http://www.w3.org/2000/svg" xmlns:xlink="http://www.w3.org/1999/xlink" width="55" zoomAndPan="magnify" viewBox="0 0 41.25 41.250001" height="55" preserveAspectRatio="xMidYMid meet" version="1.0"><defs><clipPath id="13e4242a02"><path d="M 0.757812 0.757812 L 39.800781 0.757812 L 39.800781 39.800781 L 0.757812 39.800781 Z M 0.757812 0.757812 " clip-rule="nonzero"/></clipPath></defs><g clip-path="url(#13e4242a02)"><path fill="#563d7c" d="M 0.757812 34.765625 C 0.757812 37.546875 3.011719 39.800781 5.792969 39.800781 L 34.765625 39.800781 C 37.546875 39.800781 39.800781 37.546875 39.800781 34.765625 L 39.800781 5.792969 C 39.800781 3.011719 37.546875 0.757812 34.765625 0.757812 L 5.792969 0.757812 C 3.011719 0.757812 0.757812 3.011719 0.757812 5.792969 Z M 0.757812 34.765625 " fill-opacity="1" fill-rule="nonzero"/></g><path fill="#ffffff" d="M 16.949219 18.027344 L 16.949219 12.5 L 21.816406 12.5 C 22.277344 12.5 22.726562 12.539062 23.15625 12.617188 C 23.585938 12.691406 23.96875 12.832031 24.296875 13.03125 C 24.628906 13.226562 24.894531 13.503906 25.09375 13.855469 C 25.289062 14.210938 25.390625 14.664062 25.390625 15.214844 C 25.390625 16.207031 25.09375 16.925781 24.496094 17.367188 C 23.902344 17.808594 23.140625 18.027344 22.210938 18.027344 Z M 11.75 8.460938 L 11.75 32.097656 L 23.207031 32.097656 C 24.265625 32.097656 25.296875 31.964844 26.300781 31.699219 C 27.304688 31.4375 28.199219 31.027344 28.984375 30.476562 C 29.765625 29.925781 30.390625 29.214844 30.851562 28.339844 C 31.316406 27.46875 31.546875 26.4375 31.546875 25.246094 C 31.546875 23.765625 31.191406 22.503906 30.472656 21.457031 C 29.753906 20.40625 28.667969 19.671875 27.210938 19.253906 C 28.269531 18.746094 29.070312 18.09375 29.609375 17.300781 C 30.152344 16.503906 30.421875 15.511719 30.421875 14.320312 C 30.421875 13.21875 30.242188 12.289062 29.875 11.539062 C 29.511719 10.789062 29 10.1875 28.335938 9.734375 C 27.675781 9.28125 26.878906 8.957031 25.953125 8.757812 C 25.027344 8.558594 24 8.460938 22.875 8.460938 Z M 16.949219 28.058594 L 16.949219 21.570312 L 22.609375 21.570312 C 23.734375 21.570312 24.640625 21.832031 25.324219 22.347656 C 26.007812 22.867188 26.351562 23.734375 26.351562 24.949219 C 26.351562 25.566406 26.246094 26.074219 26.035156 26.472656 C 25.824219 26.867188 25.546875 27.183594 25.191406 27.414062 C 24.839844 27.644531 24.429688 27.8125 23.96875 27.910156 C 23.503906 28.011719 23.019531 28.058594 22.511719 28.058594 Z M 16.949219 28.058594 " fill-opacity="1" fill-rule="nonzero"/></svg>