<svg xmlns="http://www.w3.org/2000/svg" xmlns:xlink="http://www.w3.org/1999/xlink" width="55" zoomAndPan="magnify" viewBox="0 0 41.25 41.250001" height="55" preserveAspectRatio="xMidYMid meet" version="1.0"><defs><clipPath id="e65640c06a"><path d="M 3.109375 0.660156 L 37.730469 0.660156 L 37.730469 39.703125 L 3.109375 39.703125 Z M 3.109375 0.660156 " clip-rule="nonzero"/></clipPath></defs><g clip-path="url(#e65640c06a)"><path fill="#e44d26" d="M 6.285156 35.648438 L 3.140625 0.847656 L 37.699219 0.847656 L 34.550781 35.644531 L 20.398438 39.515625 Z M 6.285156 35.648438 " fill-opacity="1" fill-rule="nonzero"/></g><path fill="#f16529" d="M 20.421875 36.558594 L 31.855469 33.429688 L 34.546875 3.691406 L 20.421875 3.691406 Z M 20.421875 36.558594 " fill-opacity="1" fill-rule="nonzero"/><path fill="#ebebeb" d="M 20.421875 16.601562 L 14.695312 16.601562 L 14.300781 12.230469 L 20.421875 12.230469 L 20.421875 7.960938 L 9.574219 7.960938 L 9.675781 9.105469 L 10.738281 20.871094 L 20.421875 20.871094 Z M 20.421875 27.6875 L 20.402344 27.691406 L 15.585938 26.40625 L 15.273438 23.003906 L 10.933594 23.003906 L 11.539062 29.703125 L 20.402344 32.132812 L 20.421875 32.125 Z M 20.421875 27.6875 " fill-opacity="1" fill-rule="nonzero"/><path fill="#ffffff" d="M 20.40625 16.601562 L 20.40625 20.871094 L 25.734375 20.871094 L 25.230469 26.40625 L 20.40625 27.6875 L 20.40625 32.128906 L 29.273438 29.703125 L 29.339844 28.984375 L 30.355469 17.746094 L 30.460938 16.601562 Z M 20.40625 7.960938 L 20.40625 12.230469 L 30.855469 12.230469 L 30.941406 11.269531 L 31.140625 9.105469 L 31.242188 7.960938 Z M 20.40625 7.960938 " fill-opacity="1" fill-rule="nonzero"/></svg>