<svg xmlns="http://www.w3.org/2000/svg" xmlns:xlink="http://www.w3.org/1999/xlink" width="55" zoomAndPan="magnify" viewBox="0 0 41.25 41.250001" height="55" preserveAspectRatio="xMidYMid meet" version="1.0"><defs><clipPath id="d1b917e874"><path d="M 0.507812 0.507812 L 40.28125 0.507812 L 40.28125 40.28125 L 0.507812 40.28125 Z M 0.507812 0.507812 " clip-rule="nonzero"/></clipPath></defs><g clip-path="url(#d1b917e874)"><path fill="#ffd600" d="M 0.507812 0.507812 L 40.28125 0.507812 L 40.28125 40.285156 L 0.507812 40.285156 Z M 0.507812 0.507812 " fill-opacity="1" fill-rule="nonzero"/></g><path fill="#000001" d="M 26.515625 30.28125 C 27.277344 31.523438 28.109375 32.710938 29.871094 32.710938 C 31.347656 32.710938 32.125 31.976562 32.125 30.960938 C 32.125 29.746094 31.320312 29.3125 29.695312 28.605469 L 28.804688 28.222656 C 26.230469 27.132812 24.519531 25.765625 24.519531 22.875 C 24.519531 20.210938 26.558594 18.1875 29.742188 18.1875 C 32.011719 18.1875 33.640625 18.972656 34.816406 21.027344 L 32.039062 22.804688 C 31.425781 21.714844 30.765625 21.28125 29.742188 21.28125 C 28.695312 21.28125 28.035156 21.941406 28.035156 22.804688 C 28.035156 23.871094 28.699219 24.300781 30.226562 24.960938 L 31.121094 25.339844 C 34.152344 26.632812 35.863281 27.953125 35.863281 30.917969 C 35.863281 34.113281 33.339844 35.863281 29.953125 35.863281 C 26.636719 35.863281 24.757812 34.199219 23.710938 32.140625 Z M 13.710938 30.371094 C 14.269531 31.371094 15.121094 32.140625 16.34375 32.140625 C 17.511719 32.140625 18.183594 31.679688 18.183594 29.886719 L 18.183594 18.183594 L 21.867188 18.183594 L 21.867188 30.449219 C 21.867188 34.171875 19.710938 35.863281 16.558594 35.863281 C 13.710938 35.863281 11.65625 33.933594 10.820312 32.140625 Z M 13.710938 30.371094 " fill-opacity="1" fill-rule="nonzero"/></svg>