<svg xmlns="http://www.w3.org/2000/svg" xmlns:xlink="http://www.w3.org/1999/xlink" width="55" zoomAndPan="magnify" viewBox="0 0 41.25 41.250001" height="55" preserveAspectRatio="xMidYMid meet" version="1.0"><defs><clipPath id="546f16b08e"><path d="M 10 18 L 37 18 L 37 28.085938 L 10 28.085938 Z M 10 18 " clip-rule="nonzero"/></clipPath><clipPath id="775a95a2a2"><path d="M 21 12.617188 L 31 12.617188 L 31 28.085938 L 21 28.085938 Z M 21 12.617188 " clip-rule="nonzero"/></clipPath><clipPath id="484ed5be34"><path d="M 10 18 L 20 18 L 20 28.085938 L 10 28.085938 Z M 10 18 " clip-rule="nonzero"/></clipPath><clipPath id="c57509730f"><path d="M 1 18 L 39.960938 18 L 39.960938 28.085938 L 1 28.085938 Z M 1 18 " clip-rule="nonzero"/></clipPath></defs><g clip-path="url(#546f16b08e)"><path fill="#388e3c" d="M 14.953125 18.386719 L 10.992188 20.585938 C 10.84375 20.667969 10.753906 20.820312 10.753906 20.984375 L 10.753906 25.382812 C 10.753906 25.546875 10.84375 25.699219 10.992188 25.78125 L 14.953125 27.984375 C 15.101562 28.066406 15.285156 28.066406 15.433594 27.984375 L 19.394531 25.78125 C 19.542969 25.699219 19.632812 25.546875 19.632812 25.382812 L 19.632812 20.984375 C 19.632812 20.820312 19.542969 20.667969 19.394531 20.585938 L 15.433594 18.386719 C 15.359375 18.34375 15.273438 18.324219 15.191406 18.324219 C 15.109375 18.324219 15.027344 18.34375 14.953125 18.386719 M 35.335938 22.347656 L 34.675781 22.714844 C 34.648438 22.726562 34.636719 22.753906 34.636719 22.78125 L 34.636719 23.515625 C 34.636719 23.542969 34.648438 23.566406 34.675781 23.582031 L 35.335938 23.949219 C 35.359375 23.960938 35.390625 23.960938 35.414062 23.949219 L 36.074219 23.582031 C 36.097656 23.566406 36.113281 23.542969 36.113281 23.515625 L 36.113281 22.78125 C 36.113281 22.753906 36.097656 22.726562 36.074219 22.714844 L 35.414062 22.347656 C 35.402344 22.339844 35.386719 22.335938 35.375 22.335938 C 35.359375 22.335938 35.347656 22.339844 35.335938 22.347656 " fill-opacity="1" fill-rule="nonzero"/></g><g clip-path="url(#775a95a2a2)"><path fill="#37474f" d="M 29.925781 13.722656 L 27.996094 12.644531 C 27.9375 12.609375 27.863281 12.609375 27.804688 12.644531 C 27.742188 12.683594 27.707031 12.746094 27.707031 12.816406 L 27.707031 19.335938 L 25.925781 18.347656 C 25.851562 18.308594 25.769531 18.289062 25.6875 18.289062 C 25.605469 18.289062 25.523438 18.308594 25.449219 18.347656 L 21.488281 20.546875 C 21.339844 20.628906 21.246094 20.78125 21.246094 20.945312 L 21.246094 25.347656 C 21.246094 25.511719 21.339844 25.660156 21.488281 25.746094 L 25.449219 27.945312 C 25.597656 28.027344 25.78125 28.027344 25.929688 27.945312 L 29.890625 25.746094 C 30.035156 25.664062 30.128906 25.511719 30.128906 25.347656 L 30.128906 14.066406 C 30.128906 13.925781 30.050781 13.792969 29.925781 13.722656 Z M 27.597656 24.328125 L 25.796875 25.328125 C 25.730469 25.367188 25.648438 25.367188 25.578125 25.328125 L 23.777344 24.328125 C 23.710938 24.289062 23.667969 24.222656 23.667969 24.148438 L 23.667969 22.144531 C 23.667969 22.070312 23.710938 22.003906 23.777344 21.964844 L 25.578125 20.964844 C 25.613281 20.945312 25.648438 20.9375 25.6875 20.9375 C 25.726562 20.9375 25.761719 20.949219 25.796875 20.964844 L 27.597656 21.964844 C 27.664062 22.003906 27.707031 22.074219 27.707031 22.148438 L 27.707031 24.148438 C 27.707031 24.222656 27.664062 24.289062 27.597656 24.328125 Z M 27.597656 24.328125 " fill-opacity="1" fill-rule="nonzero"/></g><g clip-path="url(#484ed5be34)"><path fill="#2e7d32" d="M 14.953125 18.386719 L 10.753906 25.382812 C 10.753906 25.546875 10.84375 25.699219 10.992188 25.78125 L 14.953125 27.984375 C 15.101562 28.066406 15.285156 28.066406 15.433594 27.984375 L 19.632812 20.984375 C 19.632812 20.820312 19.542969 20.667969 19.394531 20.585938 L 15.433594 18.386719 C 15.359375 18.34375 15.273438 18.324219 15.191406 18.324219 C 15.109375 18.324219 15.027344 18.34375 14.953125 18.386719 " fill-opacity="1" fill-rule="nonzero"/><path fill="#4caf50" d="M 14.953125 18.386719 L 10.992188 20.585938 C 10.84375 20.667969 10.753906 20.820312 10.753906 20.984375 L 14.953125 27.984375 C 15.101562 28.066406 15.285156 28.066406 15.433594 27.984375 L 19.394531 25.78125 C 19.542969 25.699219 19.632812 25.546875 19.632812 25.382812 L 15.433594 18.386719 C 15.359375 18.34375 15.273438 18.324219 15.191406 18.324219 C 15.109375 18.324219 15.027344 18.34375 14.953125 18.386719 " fill-opacity="1" fill-rule="nonzero"/></g><g clip-path="url(#c57509730f)"><path fill="#37474f" d="M 39.574219 20.546875 L 35.613281 18.347656 C 35.539062 18.308594 35.457031 18.289062 35.375 18.289062 C 35.292969 18.289062 35.207031 18.308594 35.132812 18.347656 L 35.136719 18.347656 L 31.175781 20.546875 C 31.027344 20.628906 30.933594 20.785156 30.933594 20.957031 L 30.933594 25.339844 C 30.933594 25.507812 31.027344 25.664062 31.175781 25.746094 L 35.136719 27.945312 C 35.285156 28.027344 35.464844 28.027344 35.613281 27.945312 L 37.441406 26.929688 C 37.609375 26.835938 37.609375 26.597656 37.441406 26.503906 L 33.464844 24.328125 C 33.398438 24.289062 33.355469 24.21875 33.355469 24.144531 L 33.355469 22.148438 C 33.355469 22.074219 33.398438 22.003906 33.460938 21.96875 L 35.265625 20.96875 C 35.296875 20.949219 35.335938 20.941406 35.375 20.941406 C 35.410156 20.941406 35.449219 20.949219 35.484375 20.96875 L 37.285156 21.96875 C 37.351562 22.003906 37.390625 22.074219 37.390625 22.148438 L 37.390625 23.777344 C 37.390625 23.847656 37.429688 23.910156 37.488281 23.945312 C 37.550781 23.980469 37.625 23.980469 37.683594 23.945312 L 39.621094 22.816406 C 39.738281 22.746094 39.8125 22.621094 39.8125 22.480469 L 39.8125 20.957031 C 39.8125 20.785156 39.722656 20.628906 39.574219 20.546875 Z M 9.707031 20.546875 L 5.746094 18.347656 C 5.671875 18.308594 5.589844 18.289062 5.507812 18.289062 C 5.421875 18.289062 5.339844 18.308594 5.265625 18.347656 L 1.304688 20.546875 C 1.15625 20.628906 1.066406 20.785156 1.066406 20.957031 L 1.066406 27 C 1.066406 27.070312 1.101562 27.136719 1.164062 27.171875 C 1.222656 27.203125 1.296875 27.203125 1.359375 27.167969 L 3.292969 26.042969 C 3.414062 25.972656 3.488281 25.84375 3.488281 25.703125 L 3.488281 22.144531 C 3.488281 22.070312 3.527344 22.003906 3.59375 21.96875 L 5.398438 20.964844 C 5.429688 20.949219 5.46875 20.9375 5.507812 20.9375 C 5.542969 20.9375 5.582031 20.949219 5.613281 20.964844 L 7.417969 21.96875 C 7.484375 22.003906 7.523438 22.074219 7.523438 22.148438 L 7.523438 25.703125 C 7.523438 25.84375 7.597656 25.972656 7.71875 26.042969 L 9.652344 27.171875 C 9.714844 27.207031 9.789062 27.207031 9.847656 27.171875 C 9.910156 27.136719 9.945312 27.070312 9.945312 27 L 9.945312 20.957031 C 9.945312 20.785156 9.855469 20.628906 9.707031 20.546875 Z M 9.707031 20.546875 " fill-opacity="1" fill-rule="nonzero"/></g></svg>