<svg xmlns="http://www.w3.org/2000/svg" xmlns:xlink="http://www.w3.org/1999/xlink" width="55" zoomAndPan="magnify" viewBox="0 0 41.25 41.250001" height="55" preserveAspectRatio="xMidYMid meet" version="1.0"><defs><clipPath id="d99074007a"><path d="M 0.417969 9.796875 L 40.195312 9.796875 L 40.195312 30.421875 L 0.417969 30.421875 Z M 0.417969 9.796875 " clip-rule="nonzero"/></clipPath><clipPath id="335873c5e0"><path d="M 40.195312 20.109375 C 40.195312 20.445312 40.164062 20.78125 40.101562 21.117188 C 40.035156 21.453125 39.941406 21.785156 39.8125 22.117188 C 39.6875 22.445312 39.527344 22.773438 39.339844 23.09375 C 39.152344 23.417969 38.929688 23.734375 38.683594 24.046875 C 38.433594 24.355469 38.15625 24.660156 37.847656 24.957031 C 37.539062 25.253906 37.207031 25.542969 36.84375 25.824219 C 36.480469 26.105469 36.09375 26.375 35.679688 26.636719 C 35.269531 26.894531 34.832031 27.144531 34.371094 27.382812 C 33.910156 27.621094 33.429688 27.847656 32.925781 28.0625 C 32.421875 28.273438 31.898438 28.476562 31.355469 28.660156 C 30.816406 28.847656 30.257812 29.023438 29.683594 29.179688 C 29.109375 29.339844 28.519531 29.484375 27.917969 29.613281 C 27.316406 29.742188 26.703125 29.855469 26.082031 29.953125 C 25.457031 30.050781 24.828125 30.132812 24.1875 30.199219 C 23.546875 30.261719 22.90625 30.3125 22.257812 30.347656 C 21.609375 30.378906 20.957031 30.394531 20.308594 30.394531 C 19.65625 30.394531 19.007812 30.378906 18.359375 30.347656 C 17.710938 30.3125 17.066406 30.261719 16.425781 30.199219 C 15.789062 30.132812 15.15625 30.050781 14.535156 29.953125 C 13.910156 29.855469 13.296875 29.742188 12.695312 29.613281 C 12.09375 29.484375 11.507812 29.339844 10.933594 29.179688 C 10.359375 29.023438 9.800781 28.847656 9.257812 28.660156 C 8.714844 28.476562 8.195312 28.273438 7.691406 28.0625 C 7.1875 27.847656 6.703125 27.621094 6.246094 27.382812 C 5.785156 27.144531 5.347656 26.894531 4.933594 26.636719 C 4.519531 26.375 4.132812 26.105469 3.769531 25.824219 C 3.410156 25.542969 3.074219 25.253906 2.765625 24.957031 C 2.460938 24.660156 2.183594 24.355469 1.933594 24.046875 C 1.683594 23.734375 1.464844 23.417969 1.277344 23.09375 C 1.085938 22.773438 0.929688 22.445312 0.800781 22.117188 C 0.675781 21.785156 0.578125 21.453125 0.515625 21.117188 C 0.449219 20.78125 0.417969 20.445312 0.417969 20.109375 C 0.417969 19.773438 0.449219 19.4375 0.515625 19.101562 C 0.578125 18.765625 0.675781 18.433594 0.800781 18.101562 C 0.929688 17.773438 1.085938 17.445312 1.277344 17.125 C 1.464844 16.800781 1.683594 16.484375 1.933594 16.171875 C 2.183594 15.863281 2.460938 15.558594 2.765625 15.261719 C 3.074219 14.964844 3.410156 14.675781 3.769531 14.394531 C 4.132812 14.113281 4.519531 13.84375 4.933594 13.582031 C 5.347656 13.324219 5.785156 13.074219 6.246094 12.835938 C 6.703125 12.597656 7.1875 12.371094 7.691406 12.15625 C 8.195312 11.945312 8.714844 11.742188 9.257812 11.558594 C 9.800781 11.371094 10.359375 11.195312 10.933594 11.039062 C 11.507812 10.878906 12.09375 10.734375 12.695312 10.605469 C 13.296875 10.476562 13.910156 10.363281 14.535156 10.265625 C 15.15625 10.167969 15.789062 10.085938 16.425781 10.019531 C 17.066406 9.957031 17.710938 9.90625 18.359375 9.871094 C 19.007812 9.839844 19.65625 9.824219 20.308594 9.824219 C 20.957031 9.824219 21.609375 9.839844 22.257812 9.871094 C 22.90625 9.90625 23.546875 9.957031 24.1875 10.019531 C 24.828125 10.085938 25.457031 10.167969 26.082031 10.265625 C 26.703125 10.363281 27.316406 10.476562 27.917969 10.605469 C 28.519531 10.734375 29.109375 10.878906 29.683594 11.039062 C 30.257812 11.195312 30.816406 11.371094 31.355469 11.558594 C 31.898438 11.742188 32.421875 11.945312 32.925781 12.15625 C 33.429688 12.371094 33.910156 12.597656 34.371094 12.835938 C 34.832031 13.074219 35.269531 13.324219 35.679688 13.582031 C 36.09375 13.84375 36.480469 14.113281 36.84375 14.394531 C 37.207031 14.675781 37.539062 14.964844 37.847656 15.261719 C 38.15625 15.558594 38.433594 15.863281 38.683594 16.171875 C 38.929688 16.484375 39.152344 16.800781 39.339844 17.125 C 39.527344 17.445312 39.6875 17.773438 39.8125 18.101562 C 39.941406 18.433594 40.035156 18.765625 40.101562 19.101562 C 40.164062 19.4375 40.195312 19.773438 40.195312 20.109375 Z M 40.195312 20.109375 " clip-rule="nonzero"/></clipPath><radialGradient gradientTransform="matrix(1.008231, 0, 0, 0.991769, 12.299934, 22.343606)" gradientUnits="userSpaceOnUse" r="25.90533" cx="0.0596937" id="7d19571bc1" cy="-8.97689" fx="0.0596937" fy="-8.97689"><stop stop-opacity="1" stop-color="rgb(99.725342%, 99.772644%, 99.839783%)" offset="0"/><stop stop-opacity="1" stop-color="rgb(99.176025%, 99.319458%, 99.520874%)" offset="0.00390625"/><stop stop-opacity="1" stop-color="rgb(98.628235%, 98.866272%, 99.201965%)" offset="0.0078125"/><stop stop-opacity="1" stop-color="rgb(98.078918%, 98.413086%, 98.883057%)" offset="0.0117188"/><stop stop-opacity="1" stop-color="rgb(97.531128%, 97.9599%, 98.564148%)" offset="0.015625"/><stop stop-opacity="1" stop-color="rgb(96.981812%, 97.506714%, 98.245239%)" offset="0.0195312"/><stop stop-opacity="1" stop-color="rgb(96.434021%, 97.053528%, 97.926331%)" offset="0.0234375"/><stop stop-opacity="1" stop-color="rgb(95.88623%, 96.600342%, 97.607422%)" offset="0.0273438"/><stop stop-opacity="1" stop-color="rgb(95.336914%, 96.147156%, 97.288513%)" offset="0.03125"/><stop stop-opacity="1" stop-color="rgb(94.789124%, 95.69397%, 96.97113%)" offset="0.0351562"/><stop stop-opacity="1" stop-color="rgb(94.239807%, 95.240784%, 96.652222%)" offset="0.0390625"/><stop stop-opacity="1" stop-color="rgb(93.692017%, 94.787598%, 96.333313%)" offset="0.0429688"/><stop stop-opacity="1" stop-color="rgb(93.1427%, 94.334412%, 96.014404%)" offset="0.046875"/><stop stop-opacity="1" stop-color="rgb(92.59491%, 93.881226%, 95.695496%)" offset="0.0507812"/><stop stop-opacity="1" stop-color="rgb(92.047119%, 93.42804%, 95.376587%)" offset="0.0546875"/><stop stop-opacity="1" stop-color="rgb(91.497803%, 92.974854%, 95.057678%)" offset="0.0585938"/><stop stop-opacity="1" stop-color="rgb(90.950012%, 92.521667%, 94.73877%)" offset="0.0625"/><stop stop-opacity="1" stop-color="rgb(90.400696%, 92.068481%, 94.419861%)" offset="0.0664062"/><stop stop-opacity="1" stop-color="rgb(89.852905%, 91.615295%, 94.100952%)" offset="0.0703125"/><stop stop-opacity="1" stop-color="rgb(89.303589%, 91.162109%, 93.783569%)" offset="0.0742188"/><stop stop-opacity="1" stop-color="rgb(88.755798%, 90.708923%, 93.464661%)" offset="0.078125"/><stop stop-opacity="1" stop-color="rgb(88.208008%, 90.255737%, 93.145752%)" offset="0.0820312"/><stop stop-opacity="1" stop-color="rgb(87.658691%, 89.802551%, 92.826843%)" offset="0.0859375"/><stop stop-opacity="1" stop-color="rgb(87.110901%, 89.349365%, 92.507935%)" offset="0.0898438"/><stop stop-opacity="1" stop-color="rgb(86.561584%, 88.897705%, 92.189026%)" offset="0.09375"/><stop stop-opacity="1" stop-color="rgb(86.013794%, 88.444519%, 91.870117%)" offset="0.0976562"/><stop stop-opacity="1" stop-color="rgb(85.464478%, 87.991333%, 91.551208%)" offset="0.101562"/><stop stop-opacity="1" stop-color="rgb(84.916687%, 87.538147%, 91.2323%)" offset="0.105469"/><stop stop-opacity="1" stop-color="rgb(84.368896%, 87.084961%, 90.914917%)" offset="0.109375"/><stop stop-opacity="1" stop-color="rgb(83.81958%, 86.631775%, 90.596008%)" offset="0.113281"/><stop stop-opacity="1" stop-color="rgb(83.27179%, 86.178589%, 90.2771%)" offset="0.117188"/><stop stop-opacity="1" stop-color="rgb(82.722473%, 85.725403%, 89.958191%)" offset="0.121094"/><stop stop-opacity="1" stop-color="rgb(82.174683%, 85.272217%, 89.639282%)" offset="0.125"/><stop stop-opacity="1" stop-color="rgb(81.626892%, 84.819031%, 89.320374%)" offset="0.128906"/><stop stop-opacity="1" stop-color="rgb(81.077576%, 84.365845%, 89.001465%)" offset="0.132812"/><stop stop-opacity="1" stop-color="rgb(80.529785%, 83.912659%, 88.682556%)" offset="0.136719"/><stop stop-opacity="1" stop-color="rgb(79.980469%, 83.459473%, 88.363647%)" offset="0.140625"/><stop stop-opacity="1" stop-color="rgb(79.432678%, 83.006287%, 88.044739%)" offset="0.144531"/><stop stop-opacity="1" stop-color="rgb(78.883362%, 82.553101%, 87.727356%)" offset="0.148438"/><stop stop-opacity="1" stop-color="rgb(78.335571%, 82.099915%, 87.408447%)" offset="0.152344"/><stop stop-opacity="1" stop-color="rgb(77.787781%, 81.646729%, 87.089539%)" offset="0.15625"/><stop stop-opacity="1" stop-color="rgb(77.238464%, 81.193542%, 86.77063%)" offset="0.160156"/><stop stop-opacity="1" stop-color="rgb(76.690674%, 80.740356%, 86.451721%)" offset="0.164062"/><stop stop-opacity="1" stop-color="rgb(76.141357%, 80.28717%, 86.132812%)" offset="0.167969"/><stop stop-opacity="1" stop-color="rgb(75.593567%, 79.833984%, 85.813904%)" offset="0.171875"/><stop stop-opacity="1" stop-color="rgb(75.04425%, 79.380798%, 85.494995%)" offset="0.175781"/><stop stop-opacity="1" stop-color="rgb(74.49646%, 78.927612%, 85.176086%)" offset="0.179688"/><stop stop-opacity="1" stop-color="rgb(73.948669%, 78.474426%, 84.857178%)" offset="0.183594"/><stop stop-opacity="1" stop-color="rgb(73.399353%, 78.02124%, 84.539795%)" offset="0.1875"/><stop stop-opacity="1" stop-color="rgb(72.851562%, 77.56958%, 84.220886%)" offset="0.191406"/><stop stop-opacity="1" stop-color="rgb(72.302246%, 77.116394%, 83.901978%)" offset="0.195312"/><stop stop-opacity="1" stop-color="rgb(71.754456%, 76.663208%, 83.583069%)" offset="0.199219"/><stop stop-opacity="1" stop-color="rgb(71.205139%, 76.210022%, 83.26416%)" offset="0.203125"/><stop stop-opacity="1" stop-color="rgb(70.657349%, 75.756836%, 82.945251%)" offset="0.207031"/><stop stop-opacity="1" stop-color="rgb(70.109558%, 75.30365%, 82.626343%)" offset="0.210938"/><stop stop-opacity="1" stop-color="rgb(69.560242%, 74.850464%, 82.307434%)" offset="0.214844"/><stop stop-opacity="1" stop-color="rgb(69.012451%, 74.397278%, 81.988525%)" offset="0.21875"/><stop stop-opacity="1" stop-color="rgb(68.463135%, 73.944092%, 81.671143%)" offset="0.222656"/><stop stop-opacity="1" stop-color="rgb(67.915344%, 73.490906%, 81.352234%)" offset="0.226562"/><stop stop-opacity="1" stop-color="rgb(67.366028%, 73.03772%, 81.033325%)" offset="0.230469"/><stop stop-opacity="1" stop-color="rgb(66.818237%, 72.584534%, 80.714417%)" offset="0.234375"/><stop stop-opacity="1" stop-color="rgb(66.270447%, 72.131348%, 80.395508%)" offset="0.238281"/><stop stop-opacity="1" stop-color="rgb(65.72113%, 71.678162%, 80.076599%)" offset="0.242188"/><stop stop-opacity="1" stop-color="rgb(65.17334%, 71.224976%, 79.75769%)" offset="0.246094"/><stop stop-opacity="1" stop-color="rgb(64.624023%, 70.77179%, 79.438782%)" offset="0.25"/><stop stop-opacity="1" stop-color="rgb(64.076233%, 70.318604%, 79.119873%)" offset="0.253906"/><stop stop-opacity="1" stop-color="rgb(63.528442%, 69.865417%, 78.800964%)" offset="0.257812"/><stop stop-opacity="1" stop-color="rgb(62.979126%, 69.412231%, 78.483582%)" offset="0.261719"/><stop stop-opacity="1" stop-color="rgb(62.431335%, 68.959045%, 78.164673%)" offset="0.265625"/><stop stop-opacity="1" stop-color="rgb(61.882019%, 68.505859%, 77.845764%)" offset="0.269531"/><stop stop-opacity="1" stop-color="rgb(61.334229%, 68.052673%, 77.526855%)" offset="0.273438"/><stop stop-opacity="1" stop-color="rgb(60.784912%, 67.599487%, 77.207947%)" offset="0.277344"/><stop stop-opacity="1" stop-color="rgb(60.237122%, 67.146301%, 76.889038%)" offset="0.28125"/><stop stop-opacity="1" stop-color="rgb(59.689331%, 66.693115%, 76.570129%)" offset="0.285156"/><stop stop-opacity="1" stop-color="rgb(59.140015%, 66.241455%, 76.251221%)" offset="0.289062"/><stop stop-opacity="1" stop-color="rgb(58.592224%, 65.788269%, 75.932312%)" offset="0.292969"/><stop stop-opacity="1" stop-color="rgb(58.042908%, 65.335083%, 75.614929%)" offset="0.296875"/><stop stop-opacity="1" stop-color="rgb(57.495117%, 64.881897%, 75.296021%)" offset="0.300781"/><stop stop-opacity="1" stop-color="rgb(56.945801%, 64.428711%, 74.977112%)" offset="0.304688"/><stop stop-opacity="1" stop-color="rgb(56.39801%, 63.975525%, 74.658203%)" offset="0.308594"/><stop stop-opacity="1" stop-color="rgb(55.85022%, 63.522339%, 74.339294%)" offset="0.3125"/><stop stop-opacity="1" stop-color="rgb(55.300903%, 63.069153%, 74.020386%)" offset="0.316406"/><stop stop-opacity="1" stop-color="rgb(54.753113%, 62.615967%, 73.701477%)" offset="0.320312"/><stop stop-opacity="1" stop-color="rgb(54.203796%, 62.162781%, 73.382568%)" offset="0.324219"/><stop stop-opacity="1" stop-color="rgb(53.656006%, 61.709595%, 73.06366%)" offset="0.328125"/><stop stop-opacity="1" stop-color="rgb(53.106689%, 61.256409%, 72.744751%)" offset="0.332031"/><stop stop-opacity="1" stop-color="rgb(52.558899%, 60.803223%, 72.427368%)" offset="0.335938"/><stop stop-opacity="1" stop-color="rgb(52.011108%, 60.350037%, 72.108459%)" offset="0.339844"/><stop stop-opacity="1" stop-color="rgb(51.461792%, 59.896851%, 71.789551%)" offset="0.34375"/><stop stop-opacity="1" stop-color="rgb(50.914001%, 59.443665%, 71.470642%)" offset="0.347656"/><stop stop-opacity="1" stop-color="rgb(50.364685%, 58.990479%, 71.151733%)" offset="0.351562"/><stop stop-opacity="1" stop-color="rgb(49.816895%, 58.537292%, 70.832825%)" offset="0.355469"/><stop stop-opacity="1" stop-color="rgb(49.267578%, 58.084106%, 70.513916%)" offset="0.359375"/><stop stop-opacity="1" stop-color="rgb(48.719788%, 57.63092%, 70.195007%)" offset="0.363281"/><stop stop-opacity="1" stop-color="rgb(48.171997%, 57.177734%, 69.876099%)" offset="0.367188"/><stop stop-opacity="1" stop-color="rgb(47.622681%, 56.724548%, 69.55719%)" offset="0.371094"/><stop stop-opacity="1" stop-color="rgb(47.07489%, 56.271362%, 69.239807%)" offset="0.375"/><stop stop-opacity="1" stop-color="rgb(46.525574%, 55.818176%, 68.920898%)" offset="0.378906"/><stop stop-opacity="1" stop-color="rgb(45.977783%, 55.36499%, 68.60199%)" offset="0.382812"/><stop stop-opacity="1" stop-color="rgb(45.429993%, 54.91333%, 68.283081%)" offset="0.386719"/><stop stop-opacity="1" stop-color="rgb(44.880676%, 54.460144%, 67.964172%)" offset="0.390625"/><stop stop-opacity="1" stop-color="rgb(44.332886%, 54.006958%, 67.645264%)" offset="0.394531"/><stop stop-opacity="1" stop-color="rgb(43.783569%, 53.553772%, 67.326355%)" offset="0.398438"/><stop stop-opacity="1" stop-color="rgb(43.235779%, 53.100586%, 67.007446%)" offset="0.402344"/><stop stop-opacity="1" stop-color="rgb(42.686462%, 52.6474%, 66.688538%)" offset="0.40625"/><stop stop-opacity="1" stop-color="rgb(42.138672%, 52.194214%, 66.371155%)" offset="0.410156"/><stop stop-opacity="1" stop-color="rgb(41.590881%, 51.741028%, 66.052246%)" offset="0.414062"/><stop stop-opacity="1" stop-color="rgb(41.041565%, 51.287842%, 65.733337%)" offset="0.417969"/><stop stop-opacity="1" stop-color="rgb(40.493774%, 50.834656%, 65.414429%)" offset="0.421875"/><stop stop-opacity="1" stop-color="rgb(39.944458%, 50.38147%, 65.09552%)" offset="0.425781"/><stop stop-opacity="1" stop-color="rgb(39.396667%, 49.928284%, 64.776611%)" offset="0.429688"/><stop stop-opacity="1" stop-color="rgb(38.847351%, 49.475098%, 64.457703%)" offset="0.433594"/><stop stop-opacity="1" stop-color="rgb(38.299561%, 49.021912%, 64.138794%)" offset="0.4375"/><stop stop-opacity="1" stop-color="rgb(37.75177%, 48.568726%, 63.819885%)" offset="0.441406"/><stop stop-opacity="1" stop-color="rgb(37.202454%, 48.11554%, 63.500977%)" offset="0.445312"/><stop stop-opacity="1" stop-color="rgb(36.654663%, 47.662354%, 63.183594%)" offset="0.449219"/><stop stop-opacity="1" stop-color="rgb(36.105347%, 47.209167%, 62.864685%)" offset="0.453125"/><stop stop-opacity="1" stop-color="rgb(35.557556%, 46.755981%, 62.545776%)" offset="0.457031"/><stop stop-opacity="1" stop-color="rgb(35.00824%, 46.302795%, 62.226868%)" offset="0.460938"/><stop stop-opacity="1" stop-color="rgb(34.460449%, 45.849609%, 61.907959%)" offset="0.464844"/><stop stop-opacity="1" stop-color="rgb(33.912659%, 45.396423%, 61.58905%)" offset="0.46875"/><stop stop-opacity="1" stop-color="rgb(33.363342%, 44.943237%, 61.270142%)" offset="0.472656"/><stop stop-opacity="1" stop-color="rgb(32.815552%, 44.490051%, 60.951233%)" offset="0.476562"/><stop stop-opacity="1" stop-color="rgb(32.266235%, 44.036865%, 60.632324%)" offset="0.480469"/><stop stop-opacity="1" stop-color="rgb(31.718445%, 43.585205%, 60.314941%)" offset="0.484375"/><stop stop-opacity="1" stop-color="rgb(31.170654%, 43.132019%, 59.996033%)" offset="0.488281"/><stop stop-opacity="1" stop-color="rgb(30.621338%, 42.678833%, 59.677124%)" offset="0.492188"/><stop stop-opacity="1" stop-color="rgb(30.073547%, 42.225647%, 59.358215%)" offset="0.496094"/><stop stop-opacity="1" stop-color="rgb(29.736328%, 41.882324%, 59.016418%)" offset="0.5"/><stop stop-opacity="1" stop-color="rgb(29.60968%, 41.648865%, 58.651733%)" offset="0.503906"/><stop stop-opacity="1" stop-color="rgb(29.484558%, 41.416931%, 58.287048%)" offset="0.507812"/><stop stop-opacity="1" stop-color="rgb(29.359436%, 41.183472%, 57.922363%)" offset="0.511719"/><stop stop-opacity="1" stop-color="rgb(29.232788%, 40.951538%, 57.556152%)" offset="0.515625"/><stop stop-opacity="1" stop-color="rgb(29.107666%, 40.718079%, 57.191467%)" offset="0.519531"/><stop stop-opacity="1" stop-color="rgb(28.981018%, 40.486145%, 56.826782%)" offset="0.523438"/><stop stop-opacity="1" stop-color="rgb(28.855896%, 40.252686%, 56.462097%)" offset="0.527344"/><stop stop-opacity="1" stop-color="rgb(28.729248%, 40.019226%, 56.097412%)" offset="0.53125"/><stop stop-opacity="1" stop-color="rgb(28.604126%, 39.787292%, 55.732727%)" offset="0.535156"/><stop stop-opacity="1" stop-color="rgb(28.477478%, 39.553833%, 55.368042%)" offset="0.539062"/><stop stop-opacity="1" stop-color="rgb(28.352356%, 39.321899%, 55.003357%)" offset="0.542969"/><stop stop-opacity="1" stop-color="rgb(28.227234%, 39.08844%, 54.638672%)" offset="0.546875"/><stop stop-opacity="1" stop-color="rgb(28.100586%, 38.856506%, 54.272461%)" offset="0.550781"/><stop stop-opacity="1" stop-color="rgb(27.975464%, 38.623047%, 53.907776%)" offset="0.554688"/><stop stop-opacity="1" stop-color="rgb(27.848816%, 38.389587%, 53.543091%)" offset="0.558594"/><stop stop-opacity="1" stop-color="rgb(27.723694%, 38.157654%, 53.178406%)" offset="0.5625"/><stop stop-opacity="1" stop-color="rgb(27.597046%, 37.924194%, 52.813721%)" offset="0.566406"/><stop stop-opacity="1" stop-color="rgb(27.471924%, 37.692261%, 52.449036%)" offset="0.570312"/><stop stop-opacity="1" stop-color="rgb(27.346802%, 37.458801%, 52.084351%)" offset="0.574219"/><stop stop-opacity="1" stop-color="rgb(27.220154%, 37.226868%, 51.719666%)" offset="0.578125"/><stop stop-opacity="1" stop-color="rgb(27.095032%, 36.993408%, 51.35498%)" offset="0.582031"/><stop stop-opacity="1" stop-color="rgb(26.968384%, 36.759949%, 50.990295%)" offset="0.585938"/><stop stop-opacity="1" stop-color="rgb(26.843262%, 36.528015%, 50.624084%)" offset="0.589844"/><stop stop-opacity="1" stop-color="rgb(26.716614%, 36.294556%, 50.259399%)" offset="0.59375"/><stop stop-opacity="1" stop-color="rgb(26.591492%, 36.062622%, 49.894714%)" offset="0.597656"/><stop stop-opacity="1" stop-color="rgb(26.46637%, 35.829163%, 49.530029%)" offset="0.601562"/><stop stop-opacity="1" stop-color="rgb(26.339722%, 35.595703%, 49.165344%)" offset="0.605469"/><stop stop-opacity="1" stop-color="rgb(26.2146%, 35.36377%, 48.800659%)" offset="0.609375"/><stop stop-opacity="1" stop-color="rgb(26.087952%, 35.13031%, 48.435974%)" offset="0.613281"/><stop stop-opacity="1" stop-color="rgb(25.96283%, 34.898376%, 48.071289%)" offset="0.617188"/><stop stop-opacity="1" stop-color="rgb(25.836182%, 34.664917%, 47.706604%)" offset="0.621094"/><stop stop-opacity="1" stop-color="rgb(25.71106%, 34.432983%, 47.340393%)" offset="0.625"/><stop stop-opacity="1" stop-color="rgb(25.585938%, 34.199524%, 46.975708%)" offset="0.628906"/><stop stop-opacity="1" stop-color="rgb(25.45929%, 33.966064%, 46.611023%)" offset="0.632812"/><stop stop-opacity="1" stop-color="rgb(25.334167%, 33.734131%, 46.246338%)" offset="0.636719"/><stop stop-opacity="1" stop-color="rgb(25.20752%, 33.500671%, 45.881653%)" offset="0.640625"/><stop stop-opacity="1" stop-color="rgb(25.082397%, 33.268738%, 45.516968%)" offset="0.644531"/><stop stop-opacity="1" stop-color="rgb(24.95575%, 33.035278%, 45.152283%)" offset="0.648438"/><stop stop-opacity="1" stop-color="rgb(24.830627%, 32.803345%, 44.787598%)" offset="0.652344"/><stop stop-opacity="1" stop-color="rgb(24.705505%, 32.569885%, 44.422913%)" offset="0.65625"/><stop stop-opacity="1" stop-color="rgb(24.578857%, 32.336426%, 44.058228%)" offset="0.660156"/><stop stop-opacity="1" stop-color="rgb(24.453735%, 32.104492%, 43.692017%)" offset="0.664062"/><stop stop-opacity="1" stop-color="rgb(24.327087%, 31.871033%, 43.327332%)" offset="0.667969"/><stop stop-opacity="1" stop-color="rgb(24.201965%, 31.639099%, 42.962646%)" offset="0.671875"/><stop stop-opacity="1" stop-color="rgb(24.075317%, 31.40564%, 42.597961%)" offset="0.675781"/><stop stop-opacity="1" stop-color="rgb(23.950195%, 31.173706%, 42.233276%)" offset="0.679688"/><stop stop-opacity="1" stop-color="rgb(23.823547%, 30.940247%, 41.868591%)" offset="0.683594"/><stop stop-opacity="1" stop-color="rgb(23.698425%, 30.706787%, 41.503906%)" offset="0.6875"/><stop stop-opacity="1" stop-color="rgb(23.573303%, 30.474854%, 41.139221%)" offset="0.691406"/><stop stop-opacity="1" stop-color="rgb(23.446655%, 30.241394%, 40.774536%)" offset="0.695312"/><stop stop-opacity="1" stop-color="rgb(23.321533%, 30.00946%, 40.409851%)" offset="0.699219"/><stop stop-opacity="1" stop-color="rgb(23.194885%, 29.776001%, 40.04364%)" offset="0.703125"/><stop stop-opacity="1" stop-color="rgb(23.069763%, 29.544067%, 39.678955%)" offset="0.707031"/><stop stop-opacity="1" stop-color="rgb(22.943115%, 29.310608%, 39.31427%)" offset="0.710938"/><stop stop-opacity="1" stop-color="rgb(22.817993%, 29.077148%, 38.949585%)" offset="0.714844"/><stop stop-opacity="1" stop-color="rgb(22.692871%, 28.845215%, 38.5849%)" offset="0.71875"/><stop stop-opacity="1" stop-color="rgb(22.566223%, 28.611755%, 38.220215%)" offset="0.722656"/><stop stop-opacity="1" stop-color="rgb(22.441101%, 28.379822%, 37.85553%)" offset="0.726562"/><stop stop-opacity="1" stop-color="rgb(22.314453%, 28.146362%, 37.490845%)" offset="0.730469"/><stop stop-opacity="1" stop-color="rgb(22.189331%, 27.912903%, 37.12616%)" offset="0.734375"/><stop stop-opacity="1" stop-color="rgb(22.062683%, 27.680969%, 36.759949%)" offset="0.738281"/><stop stop-opacity="1" stop-color="rgb(21.937561%, 27.44751%, 36.395264%)" offset="0.742188"/><stop stop-opacity="1" stop-color="rgb(21.812439%, 27.215576%, 36.030579%)" offset="0.746094"/><stop stop-opacity="1" stop-color="rgb(21.685791%, 26.982117%, 35.665894%)" offset="0.75"/><stop stop-opacity="1" stop-color="rgb(21.560669%, 26.750183%, 35.301208%)" offset="0.753906"/><stop stop-opacity="1" stop-color="rgb(21.434021%, 26.516724%, 34.936523%)" offset="0.757812"/><stop stop-opacity="1" stop-color="rgb(21.308899%, 26.283264%, 34.571838%)" offset="0.761719"/><stop stop-opacity="1" stop-color="rgb(21.182251%, 26.051331%, 34.207153%)" offset="0.765625"/><stop stop-opacity="1" stop-color="rgb(21.057129%, 25.817871%, 33.842468%)" offset="0.769531"/><stop stop-opacity="1" stop-color="rgb(20.932007%, 25.585938%, 33.477783%)" offset="0.773438"/><stop stop-opacity="1" stop-color="rgb(20.805359%, 25.352478%, 33.111572%)" offset="0.777344"/><stop stop-opacity="1" stop-color="rgb(20.680237%, 25.120544%, 32.746887%)" offset="0.78125"/><stop stop-opacity="1" stop-color="rgb(20.553589%, 24.887085%, 32.382202%)" offset="0.785156"/><stop stop-opacity="1" stop-color="rgb(20.428467%, 24.653625%, 32.017517%)" offset="0.789062"/><stop stop-opacity="1" stop-color="rgb(20.301819%, 24.421692%, 31.652832%)" offset="0.792969"/><stop stop-opacity="1" stop-color="rgb(20.176697%, 24.188232%, 31.288147%)" offset="0.796875"/><stop stop-opacity="1" stop-color="rgb(20.051575%, 23.956299%, 30.923462%)" offset="0.800781"/><stop stop-opacity="1" stop-color="rgb(19.924927%, 23.722839%, 30.558777%)" offset="0.804688"/><stop stop-opacity="1" stop-color="rgb(19.799805%, 23.490906%, 30.194092%)" offset="0.808594"/><stop stop-opacity="1" stop-color="rgb(19.673157%, 23.257446%, 29.827881%)" offset="0.8125"/><stop stop-opacity="1" stop-color="rgb(19.548035%, 23.023987%, 29.463196%)" offset="0.816406"/><stop stop-opacity="1" stop-color="rgb(19.421387%, 22.792053%, 29.098511%)" offset="0.820312"/><stop stop-opacity="1" stop-color="rgb(19.296265%, 22.558594%, 28.733826%)" offset="0.824219"/><stop stop-opacity="1" stop-color="rgb(19.171143%, 22.32666%, 28.369141%)" offset="0.828125"/><stop stop-opacity="1" stop-color="rgb(19.044495%, 22.093201%, 28.004456%)" offset="0.832031"/><stop stop-opacity="1" stop-color="rgb(18.919373%, 21.861267%, 27.639771%)" offset="0.835938"/><stop stop-opacity="1" stop-color="rgb(18.792725%, 21.627808%, 27.275085%)" offset="0.839844"/><stop stop-opacity="1" stop-color="rgb(18.667603%, 21.394348%, 26.9104%)" offset="0.84375"/><stop stop-opacity="1" stop-color="rgb(18.540955%, 21.162415%, 26.545715%)" offset="0.847656"/><stop stop-opacity="1" stop-color="rgb(18.415833%, 20.928955%, 26.179504%)" offset="0.851562"/><stop stop-opacity="1" stop-color="rgb(18.289185%, 20.697021%, 25.814819%)" offset="0.855469"/><stop stop-opacity="1" stop-color="rgb(18.164062%, 20.463562%, 25.450134%)" offset="0.859375"/><stop stop-opacity="1" stop-color="rgb(18.03894%, 20.230103%, 25.085449%)" offset="0.863281"/><stop stop-opacity="1" stop-color="rgb(17.912292%, 19.998169%, 24.720764%)" offset="0.867188"/><stop stop-opacity="1" stop-color="rgb(17.78717%, 19.764709%, 24.356079%)" offset="0.871094"/><stop stop-opacity="1" stop-color="rgb(17.660522%, 19.532776%, 23.991394%)" offset="0.875"/><stop stop-opacity="1" stop-color="rgb(17.5354%, 19.299316%, 23.626709%)" offset="0.878906"/><stop stop-opacity="1" stop-color="rgb(17.408752%, 19.067383%, 23.262024%)" offset="0.882812"/><stop stop-opacity="1" stop-color="rgb(17.28363%, 18.833923%, 22.897339%)" offset="0.886719"/><stop stop-opacity="1" stop-color="rgb(17.158508%, 18.600464%, 22.531128%)" offset="0.890625"/><stop stop-opacity="1" stop-color="rgb(17.03186%, 18.36853%, 22.166443%)" offset="0.894531"/><stop stop-opacity="1" stop-color="rgb(16.906738%, 18.135071%, 21.801758%)" offset="0.898438"/><stop stop-opacity="1" stop-color="rgb(16.78009%, 17.903137%, 21.437073%)" offset="0.902344"/><stop stop-opacity="1" stop-color="rgb(16.654968%, 17.669678%, 21.072388%)" offset="0.90625"/><stop stop-opacity="1" stop-color="rgb(16.52832%, 17.437744%, 20.707703%)" offset="0.910156"/><stop stop-opacity="1" stop-color="rgb(16.403198%, 17.204285%, 20.343018%)" offset="0.914062"/><stop stop-opacity="1" stop-color="rgb(16.278076%, 16.970825%, 19.978333%)" offset="0.917969"/><stop stop-opacity="1" stop-color="rgb(16.151428%, 16.738892%, 19.613647%)" offset="0.921875"/><stop stop-opacity="1" stop-color="rgb(16.026306%, 16.505432%, 19.247437%)" offset="0.925781"/><stop stop-opacity="1" stop-color="rgb(15.899658%, 16.273499%, 18.882751%)" offset="0.929688"/><stop stop-opacity="1" stop-color="rgb(15.774536%, 16.040039%, 18.518066%)" offset="0.933594"/><stop stop-opacity="1" stop-color="rgb(15.647888%, 15.808105%, 18.153381%)" offset="0.9375"/><stop stop-opacity="1" stop-color="rgb(15.522766%, 15.574646%, 17.788696%)" offset="0.941406"/><stop stop-opacity="1" stop-color="rgb(15.397644%, 15.341187%, 17.424011%)" offset="0.945312"/><stop stop-opacity="1" stop-color="rgb(15.270996%, 15.109253%, 17.059326%)" offset="0.949219"/><stop stop-opacity="1" stop-color="rgb(15.145874%, 14.875793%, 16.694641%)" offset="0.953125"/><stop stop-opacity="1" stop-color="rgb(15.019226%, 14.64386%, 16.329956%)" offset="0.957031"/><stop stop-opacity="1" stop-color="rgb(14.894104%, 14.4104%, 15.965271%)" offset="0.960938"/><stop stop-opacity="1" stop-color="rgb(14.767456%, 14.178467%, 15.59906%)" offset="0.964844"/><stop stop-opacity="1" stop-color="rgb(14.642334%, 13.945007%, 15.234375%)" offset="0.96875"/><stop stop-opacity="1" stop-color="rgb(14.517212%, 13.711548%, 14.86969%)" offset="0.972656"/><stop stop-opacity="1" stop-color="rgb(14.390564%, 13.479614%, 14.505005%)" offset="0.976562"/><stop stop-opacity="1" stop-color="rgb(14.265442%, 13.246155%, 14.14032%)" offset="0.980469"/><stop stop-opacity="1" stop-color="rgb(14.138794%, 13.014221%, 13.775635%)" offset="0.984375"/><stop stop-opacity="1" stop-color="rgb(14.013672%, 12.780762%, 13.41095%)" offset="0.988281"/><stop stop-opacity="1" stop-color="rgb(13.887024%, 12.547302%, 13.046265%)" offset="0.992188"/><stop stop-opacity="1" stop-color="rgb(13.761902%, 12.315369%, 12.68158%)" offset="0.996094"/><stop stop-opacity="1" stop-color="rgb(13.699341%, 12.199402%, 12.5%)" offset="1"/></radialGradient></defs><g clip-path="url(#d99074007a)"><g clip-path="url(#335873c5e0)"><path fill="url(#7d19571bc1)" d="M 0.417969 9.824219 L 0.417969 30.394531 L 40.195312 30.394531 L 40.195312 9.824219 Z M 0.417969 9.824219 " fill-rule="nonzero"/></g></g><path fill="#6181b6" d="M 39.417969 20.109375 C 39.417969 20.734375 39.296875 21.355469 39.050781 21.96875 C 38.808594 22.582031 38.445312 23.175781 37.964844 23.753906 C 37.484375 24.332031 36.894531 24.878906 36.199219 25.398438 C 35.5 25.917969 34.707031 26.398438 33.820312 26.84375 C 32.933594 27.285156 31.96875 27.679688 30.925781 28.027344 C 29.882812 28.375 28.78125 28.667969 27.621094 28.90625 C 26.460938 29.144531 25.265625 29.328125 24.035156 29.449219 C 22.804688 29.570312 21.5625 29.632812 20.308594 29.632812 C 19.050781 29.632812 17.808594 29.570312 16.578125 29.449219 C 15.347656 29.328125 14.152344 29.144531 12.992188 28.90625 C 11.835938 28.667969 10.734375 28.375 9.691406 28.027344 C 8.644531 27.679688 7.679688 27.285156 6.792969 26.84375 C 5.90625 26.398438 5.113281 25.917969 4.417969 25.398438 C 3.71875 24.878906 3.132812 24.332031 2.652344 23.753906 C 2.171875 23.175781 1.808594 22.582031 1.5625 21.96875 C 1.320312 21.355469 1.195312 20.734375 1.195312 20.109375 C 1.195312 19.484375 1.320312 18.863281 1.5625 18.25 C 1.808594 17.636719 2.171875 17.042969 2.652344 16.464844 C 3.132812 15.886719 3.71875 15.339844 4.417969 14.820312 C 5.113281 14.300781 5.90625 13.820312 6.792969 13.375 C 7.679688 12.933594 8.644531 12.539062 9.691406 12.191406 C 10.734375 11.84375 11.835938 11.550781 12.992188 11.3125 C 14.152344 11.074219 15.347656 10.890625 16.578125 10.769531 C 17.808594 10.648438 19.050781 10.585938 20.308594 10.585938 C 21.5625 10.585938 22.804688 10.648438 24.035156 10.769531 C 25.265625 10.890625 26.460938 11.074219 27.621094 11.3125 C 28.78125 11.550781 29.882812 11.84375 30.925781 12.191406 C 31.96875 12.539062 32.933594 12.933594 33.820312 13.375 C 34.707031 13.820312 35.5 14.300781 36.199219 14.820312 C 36.894531 15.339844 37.484375 15.886719 37.964844 16.464844 C 38.445312 17.042969 38.808594 17.636719 39.050781 18.25 C 39.296875 18.863281 39.417969 19.484375 39.417969 20.109375 Z M 39.417969 20.109375 " fill-opacity="1" fill-rule="nonzero"/><path fill="#ffffff" d="M 24.175781 23.195312 L 25.125 18.398438 C 25.339844 17.3125 25.15625 16.503906 24.597656 15.996094 C 24.050781 15.507812 23.121094 15.265625 21.753906 15.265625 L 20.105469 15.265625 L 20.570312 12.878906 C 20.585938 12.789062 20.570312 12.695312 20.507812 12.621094 C 20.449219 12.542969 20.371094 12.511719 20.277344 12.511719 L 18.007812 12.511719 C 17.851562 12.511719 17.726562 12.621094 17.695312 12.757812 L 16.6875 17.847656 C 16.59375 17.265625 16.375 16.777344 16.003906 16.378906 C 15.335938 15.632812 14.292969 15.25 12.878906 15.25 L 8.515625 15.25 C 8.359375 15.25 8.234375 15.355469 8.203125 15.492188 L 6.167969 25.824219 C 6.152344 25.917969 6.167969 26.007812 6.230469 26.085938 C 6.292969 26.160156 6.371094 26.191406 6.464844 26.191406 L 8.746094 26.191406 C 8.902344 26.191406 9.027344 26.085938 9.058594 25.949219 L 9.554688 23.457031 L 11.25 23.457031 C 12.132812 23.457031 12.894531 23.363281 13.472656 23.179688 C 14.078125 22.984375 14.621094 22.660156 15.101562 22.21875 C 15.492188 21.867188 15.816406 21.46875 16.066406 21.042969 L 15.660156 23.105469 C 15.644531 23.195312 15.660156 23.289062 15.722656 23.363281 C 15.785156 23.441406 15.863281 23.472656 15.957031 23.472656 L 18.226562 23.472656 C 18.378906 23.472656 18.503906 23.363281 18.535156 23.226562 L 19.65625 17.570312 L 21.207031 17.570312 C 21.875 17.570312 22.0625 17.695312 22.125 17.753906 C 22.171875 17.800781 22.265625 17.984375 22.15625 18.550781 L 21.253906 23.121094 C 21.238281 23.210938 21.253906 23.304688 21.316406 23.378906 C 21.378906 23.457031 21.457031 23.488281 21.550781 23.488281 L 23.882812 23.488281 C 24.019531 23.441406 24.144531 23.335938 24.175781 23.195312 Z M 13.671875 19.222656 C 13.53125 19.941406 13.269531 20.460938 12.878906 20.75 C 12.492188 21.042969 11.855469 21.195312 11.015625 21.195312 L 10.007812 21.195312 L 10.734375 17.496094 L 12.042969 17.496094 C 13.003906 17.496094 13.394531 17.695312 13.546875 17.863281 C 13.75 18.105469 13.796875 18.582031 13.671875 19.222656 Z M 13.671875 19.222656 " fill-opacity="1" fill-rule="nonzero"/><path fill="#ffffff" d="M 33.871094 16.378906 C 33.203125 15.632812 32.164062 15.25 30.75 15.25 L 26.351562 15.25 C 26.195312 15.25 26.070312 15.355469 26.039062 15.492188 L 24.003906 25.808594 C 23.988281 25.902344 24.003906 25.992188 24.066406 26.070312 C 24.128906 26.148438 24.207031 26.175781 24.300781 26.175781 L 26.585938 26.175781 C 26.738281 26.175781 26.863281 26.070312 26.894531 25.933594 L 27.394531 23.441406 L 29.085938 23.441406 C 29.972656 23.441406 30.734375 23.347656 31.308594 23.167969 C 31.914062 22.96875 32.457031 22.648438 32.941406 22.203125 C 33.34375 21.835938 33.6875 21.421875 33.933594 20.980469 C 34.183594 20.539062 34.371094 20.046875 34.476562 19.511719 C 34.742188 18.183594 34.539062 17.144531 33.871094 16.378906 Z M 31.496094 19.222656 C 31.355469 19.941406 31.089844 20.460938 30.703125 20.75 C 30.3125 21.042969 29.675781 21.195312 28.835938 21.195312 L 27.828125 21.195312 L 28.558594 17.496094 L 29.863281 17.496094 C 30.828125 17.496094 31.214844 17.695312 31.371094 17.863281 C 31.589844 18.105469 31.632812 18.582031 31.496094 19.222656 Z M 31.496094 19.222656 " fill-opacity="1" fill-rule="nonzero"/><path fill="#000004" d="M 12.042969 17.191406 C 12.910156 17.191406 13.488281 17.34375 13.78125 17.664062 C 14.078125 17.984375 14.140625 18.519531 13.984375 19.285156 C 13.828125 20.078125 13.515625 20.660156 13.066406 20.996094 C 12.617188 21.332031 11.933594 21.5 11.015625 21.5 L 9.632812 21.5 L 10.488281 17.191406 Z M 6.480469 25.871094 L 8.761719 25.871094 L 9.308594 23.136719 L 11.265625 23.136719 C 12.132812 23.136719 12.832031 23.042969 13.394531 22.859375 C 13.953125 22.675781 14.449219 22.386719 14.914062 21.957031 C 15.304688 21.605469 15.613281 21.226562 15.847656 20.8125 C 16.082031 20.398438 16.253906 19.941406 16.34375 19.4375 C 16.59375 18.214844 16.40625 17.265625 15.800781 16.578125 C 15.195312 15.890625 14.230469 15.554688 12.910156 15.554688 L 8.515625 15.554688 Z M 6.480469 25.871094 " fill-opacity="1" fill-rule="nonzero"/><path fill="#000004" d="M 18.023438 12.820312 L 20.292969 12.820312 L 19.75 15.554688 L 21.769531 15.554688 C 23.042969 15.554688 23.914062 15.769531 24.394531 16.210938 C 24.875 16.65625 25.015625 17.359375 24.828125 18.335938 L 23.882812 23.136719 L 21.582031 23.136719 L 22.484375 18.566406 C 22.589844 18.046875 22.546875 17.695312 22.375 17.511719 C 22.203125 17.328125 21.816406 17.21875 21.238281 17.21875 L 19.421875 17.21875 L 18.257812 23.136719 L 15.988281 23.136719 Z M 18.023438 12.820312 " fill-opacity="1" fill-rule="nonzero"/><path fill="#000004" d="M 29.863281 17.191406 C 30.734375 17.191406 31.308594 17.34375 31.601562 17.664062 C 31.898438 17.984375 31.960938 18.519531 31.804688 19.285156 C 31.648438 20.078125 31.339844 20.660156 30.890625 20.996094 C 30.4375 21.332031 29.753906 21.5 28.835938 21.5 L 27.453125 21.5 L 28.308594 17.191406 Z M 24.300781 25.871094 L 26.585938 25.871094 L 27.128906 23.136719 L 29.085938 23.136719 C 29.957031 23.136719 30.65625 23.042969 31.214844 22.859375 C 31.773438 22.675781 32.273438 22.386719 32.738281 21.957031 C 33.125 21.605469 33.4375 21.226562 33.671875 20.8125 C 33.902344 20.398438 34.074219 19.941406 34.167969 19.4375 C 34.414062 18.214844 34.230469 17.265625 33.625 16.578125 C 33.015625 15.890625 32.054688 15.554688 30.734375 15.554688 L 26.335938 15.554688 Z M 24.300781 25.871094 " fill-opacity="1" fill-rule="nonzero"/></svg>