<svg xmlns="http://www.w3.org/2000/svg" xmlns:xlink="http://www.w3.org/1999/xlink" width="55" zoomAndPan="magnify" viewBox="0 0 41.25 41.250001" height="55" preserveAspectRatio="xMidYMid meet" version="1.0"><defs><clipPath id="fe797f58dd"><path d="M 0.539062 2 L 40.316406 2 L 40.316406 38 L 0.539062 38 Z M 0.539062 2 " clip-rule="nonzero"/></clipPath></defs><g clip-path="url(#fe797f58dd)"><path fill="#00d8ff" d="M 33.230469 14.121094 C 32.804688 13.976562 32.378906 13.84375 31.949219 13.722656 C 32.019531 13.429688 32.089844 13.136719 32.148438 12.851562 C 33.117188 8.175781 32.480469 4.410156 30.320312 3.167969 C 28.246094 1.980469 24.851562 3.21875 21.425781 6.183594 C 21.089844 6.476562 20.757812 6.777344 20.4375 7.085938 C 20.222656 6.882812 20 6.679688 19.777344 6.480469 C 16.1875 3.3125 12.589844 1.976562 10.429688 3.21875 C 8.355469 4.414062 7.742188 7.953125 8.613281 12.386719 C 8.699219 12.824219 8.800781 13.261719 8.90625 13.695312 C 8.398438 13.839844 7.90625 13.992188 7.4375 14.15625 C 3.226562 15.617188 0.539062 17.902344 0.539062 20.277344 C 0.539062 22.726562 3.425781 25.183594 7.808594 26.675781 C 8.164062 26.792969 8.523438 26.90625 8.882812 27.007812 C 8.765625 27.476562 8.664062 27.945312 8.570312 28.421875 C 7.742188 32.777344 8.390625 36.234375 10.457031 37.417969 C 12.589844 38.644531 16.171875 37.386719 19.664062 34.351562 C 19.945312 34.105469 20.222656 33.851562 20.492188 33.59375 C 20.839844 33.925781 21.199219 34.253906 21.566406 34.566406 C 24.945312 37.457031 28.28125 38.625 30.347656 37.4375 C 32.480469 36.210938 33.171875 32.496094 32.273438 27.976562 C 32.203125 27.621094 32.125 27.269531 32.035156 26.917969 C 32.285156 26.84375 32.535156 26.769531 32.773438 26.6875 C 37.332031 25.1875 40.296875 22.757812 40.296875 20.277344 C 40.296875 17.894531 37.523438 15.59375 33.230469 14.121094 Z M 32.242188 25.085938 C 32.023438 25.15625 31.800781 25.226562 31.574219 25.292969 C 31.070312 23.710938 30.390625 22.023438 29.558594 20.285156 C 30.351562 18.585938 31.003906 16.921875 31.496094 15.347656 C 31.902344 15.464844 32.296875 15.589844 32.675781 15.71875 C 36.355469 16.980469 38.601562 18.839844 38.601562 20.277344 C 38.601562 21.804688 36.175781 23.789062 32.242188 25.085938 Z M 30.609375 28.304688 C 31.003906 30.300781 31.0625 32.109375 30.796875 33.523438 C 30.5625 34.789062 30.085938 35.636719 29.496094 35.976562 C 28.242188 36.699219 25.5625 35.761719 22.675781 33.285156 C 22.332031 32.992188 22 32.691406 21.675781 32.378906 C 22.796875 31.160156 23.914062 29.746094 25.007812 28.171875 C 26.929688 28.003906 28.746094 27.726562 30.390625 27.347656 C 30.472656 27.664062 30.542969 27.984375 30.609375 28.304688 Z M 14.09375 35.851562 C 12.871094 36.28125 11.894531 36.292969 11.304688 35.957031 C 10.050781 35.238281 9.53125 32.460938 10.242188 28.734375 C 10.324219 28.296875 10.421875 27.855469 10.53125 27.421875 C 12.160156 27.78125 13.960938 28.039062 15.890625 28.195312 C 16.988281 29.734375 18.140625 31.148438 19.300781 32.386719 C 19.054688 32.625 18.800781 32.855469 18.542969 33.082031 C 17 34.421875 15.457031 35.375 14.09375 35.851562 Z M 8.359375 25.078125 C 6.417969 24.417969 4.820312 23.5625 3.722656 22.625 C 2.734375 21.785156 2.238281 20.953125 2.238281 20.277344 C 2.238281 18.835938 4.394531 17 7.996094 15.753906 C 8.433594 15.601562 8.890625 15.457031 9.363281 15.324219 C 9.863281 16.933594 10.515625 18.617188 11.300781 20.316406 C 10.503906 22.042969 9.84375 23.753906 9.339844 25.382812 C 9.011719 25.289062 8.683594 25.1875 8.359375 25.078125 Z M 10.28125 12.0625 C 9.535156 8.265625 10.03125 5.402344 11.277344 4.683594 C 12.609375 3.917969 15.550781 5.007812 18.652344 7.746094 C 18.851562 7.925781 19.050781 8.105469 19.246094 8.292969 C 18.089844 9.527344 16.949219 10.929688 15.859375 12.460938 C 13.988281 12.632812 12.199219 12.910156 10.554688 13.28125 C 10.453125 12.878906 10.363281 12.472656 10.28125 12.0625 Z M 27.429688 16.273438 C 27.042969 15.605469 26.640625 14.945312 26.222656 14.296875 C 27.492188 14.457031 28.707031 14.667969 29.847656 14.925781 C 29.503906 16.019531 29.078125 17.160156 28.574219 18.332031 C 28.207031 17.636719 27.828125 16.953125 27.429688 16.273438 Z M 20.4375 9.5 C 21.222656 10.34375 22.003906 11.285156 22.777344 12.308594 C 21.210938 12.234375 19.644531 12.234375 18.078125 12.308594 C 18.851562 11.292969 19.640625 10.355469 20.4375 9.5 Z M 13.398438 16.285156 C 13.007812 16.957031 12.632812 17.640625 12.277344 18.332031 C 11.78125 17.164062 11.359375 16.015625 11.011719 14.910156 C 12.148438 14.65625 13.355469 14.449219 14.617188 14.292969 C 14.195312 14.949219 13.789062 15.613281 13.398438 16.285156 Z M 14.652344 26.378906 C 13.351562 26.234375 12.125 26.039062 10.988281 25.792969 C 11.339844 24.664062 11.773438 23.496094 12.277344 22.300781 C 12.636719 22.992188 13.011719 23.675781 13.40625 24.347656 C 13.808594 25.039062 14.226562 25.71875 14.652344 26.378906 Z M 20.484375 31.171875 C 19.679688 30.308594 18.875 29.351562 18.09375 28.324219 C 18.855469 28.355469 19.628906 28.371094 20.417969 28.371094 C 21.230469 28.371094 22.03125 28.351562 22.820312 28.316406 C 22.042969 29.363281 21.261719 30.320312 20.484375 31.171875 Z M 28.589844 22.242188 C 29.121094 23.445312 29.570312 24.613281 29.925781 25.71875 C 28.773438 25.980469 27.527344 26.191406 26.21875 26.347656 C 26.636719 25.6875 27.042969 25.015625 27.4375 24.335938 C 27.839844 23.648438 28.222656 22.949219 28.589844 22.242188 Z M 25.96875 23.492188 C 25.363281 24.535156 24.730469 25.554688 24.058594 26.554688 C 22.847656 26.640625 21.632812 26.679688 20.417969 26.679688 C 19.179688 26.679688 17.976562 26.640625 16.820312 26.566406 C 16.132812 25.570312 15.484375 24.546875 14.875 23.503906 C 14.269531 22.460938 13.703125 21.398438 13.179688 20.316406 C 13.703125 19.234375 14.265625 18.171875 14.871094 17.128906 C 15.472656 16.089844 16.117188 15.070312 16.796875 14.078125 C 17.980469 13.988281 19.191406 13.941406 20.417969 13.941406 C 21.648438 13.941406 22.863281 13.988281 24.046875 14.078125 C 24.71875 15.070312 25.359375 16.085938 25.960938 17.121094 C 26.566406 18.160156 27.140625 19.21875 27.675781 20.292969 C 27.144531 21.378906 26.574219 22.445312 25.96875 23.492188 Z M 29.472656 4.632812 C 30.800781 5.394531 31.320312 8.472656 30.484375 12.511719 C 30.429688 12.769531 30.371094 13.03125 30.304688 13.296875 C 28.65625 12.917969 26.863281 12.636719 24.988281 12.464844 C 23.894531 10.917969 22.765625 9.507812 21.628906 8.292969 C 21.925781 8.007812 22.230469 7.726562 22.542969 7.457031 C 25.476562 4.917969 28.222656 3.914062 29.472656 4.632812 Z M 20.417969 16.746094 C 22.378906 16.746094 23.96875 18.328125 23.96875 20.277344 C 23.96875 22.226562 22.378906 23.808594 20.417969 23.808594 C 18.457031 23.808594 16.867188 22.226562 16.867188 20.277344 C 16.867188 18.328125 18.457031 16.746094 20.417969 16.746094 Z M 20.417969 16.746094 " fill-opacity="1" fill-rule="nonzero"/></g></svg>