<svg xmlns="http://www.w3.org/2000/svg" xmlns:xlink="http://www.w3.org/1999/xlink" width="100" zoomAndPan="magnify" viewBox="0 0 75 74.999997" height="100" preserveAspectRatio="xMidYMid meet" version="1.0"><defs><clipPath id="4f227385c2"><path d="M 19 0.464844 L 56 0.464844 L 56 55 L 19 55 Z M 19 0.464844 " clip-rule="nonzero"/></clipPath><clipPath id="3ce06104a2"><path d="M 5.234375 47 L 69.734375 47 L 69.734375 74.714844 L 5.234375 74.714844 Z M 5.234375 47 " clip-rule="nonzero"/></clipPath></defs><g clip-path="url(#4f227385c2)"><path fill="#ffffff" d="M 37.601562 0.863281 C 35.644531 0.863281 34.058594 2.453125 34.058594 4.417969 L 34.058594 42.542969 L 25.753906 34.214844 C 22.414062 30.96875 17.496094 35.878906 20.742188 39.242188 C 20.742188 39.242188 35.09375 53.636719 35.09375 53.636719 C 36.433594 55.03125 38.765625 54.984375 40.105469 53.636719 C 40.105469 53.636719 54.460938 39.242188 54.460938 39.242188 C 57.695312 35.886719 52.800781 30.964844 49.449219 34.214844 C 49.449219 34.214844 41.144531 42.542969 41.144531 42.542969 L 41.144531 4.417969 C 41.144531 2.453125 39.558594 0.863281 37.601562 0.863281 Z M 37.601562 0.863281 " fill-opacity="1" fill-rule="nonzero"/></g><g clip-path="url(#3ce06104a2)"><path fill="#ffffff" d="M 8.894531 47.570312 C 6.9375 47.570312 5.351562 49.160156 5.351562 51.125 L 5.351562 56.367188 C 5.351562 66.265625 13.378906 74.316406 23.246094 74.316406 L 51.953125 74.316406 C 61.824219 74.316406 69.851562 66.265625 69.851562 56.367188 L 69.851562 51.125 C 69.851562 49.160156 68.265625 47.570312 66.308594 47.570312 C 64.351562 47.570312 62.765625 49.160156 62.765625 51.125 L 62.765625 56.367188 C 62.765625 62.34375 57.914062 67.207031 51.953125 67.207031 L 23.246094 67.207031 C 17.289062 67.207031 12.4375 62.34375 12.4375 56.367188 L 12.4375 51.125 C 12.4375 49.160156 10.851562 47.570312 8.894531 47.570312 Z M 8.894531 47.570312 " fill-opacity="1" fill-rule="nonzero"/></g></svg>