<svg xmlns="http://www.w3.org/2000/svg" xmlns:xlink="http://www.w3.org/1999/xlink" width="176" zoomAndPan="magnify" viewBox="0 0 132 30.000001" height="40" preserveAspectRatio="xMidYMid meet" version="1.0"><defs><g/><clipPath id="4974d6296a"><path d="M 3.433594 5 L 16 5 L 16 25 L 3.433594 25 Z M 3.433594 5 " clip-rule="nonzero"/></clipPath><clipPath id="5a85a9b439"><path d="M 30 5 L 41.902344 5 L 41.902344 25 L 30 25 Z M 30 5 " clip-rule="nonzero"/></clipPath><clipPath id="db30846ef4"><path d="M 17 1 L 29 1 L 29 27.824219 L 17 27.824219 Z M 17 1 " clip-rule="nonzero"/></clipPath><clipPath id="09a0a1f7a2"><path d="M 64 11 L 119 11 L 119 29.03125 L 64 29.03125 Z M 64 11 " clip-rule="nonzero"/></clipPath></defs><g clip-path="url(#4974d6296a)"><path fill="#ce6914" d="M 13.183594 24.042969 C 12.617188 24.042969 12.238281 23.851562 11.859375 23.472656 L 4.269531 15.910156 C 3.511719 15.152344 3.511719 14.019531 4.269531 13.261719 L 11.859375 5.699219 C 12.617188 4.941406 13.753906 4.941406 14.511719 5.699219 C 15.273438 6.453125 15.273438 7.589844 14.511719 8.34375 L 8.253906 14.585938 L 14.511719 20.828125 C 15.273438 21.582031 15.273438 22.71875 14.511719 23.472656 C 14.132812 23.851562 13.753906 24.042969 13.183594 24.042969 Z M 13.183594 24.042969 " fill-opacity="1" fill-rule="nonzero"/></g><g clip-path="url(#5a85a9b439)"><path fill="#ce6914" d="M 32.152344 24.042969 C 31.585938 24.042969 31.203125 23.851562 30.824219 23.472656 C 30.066406 22.71875 30.066406 21.582031 30.824219 20.828125 L 37.085938 14.585938 L 30.824219 8.34375 C 30.066406 7.589844 30.066406 6.453125 30.824219 5.699219 C 31.585938 4.941406 32.722656 4.941406 33.480469 5.699219 L 41.066406 13.261719 C 41.828125 14.019531 41.828125 15.152344 41.066406 15.910156 L 33.480469 23.472656 C 33.101562 23.851562 32.722656 24.042969 32.152344 24.042969 Z M 32.152344 24.042969 " fill-opacity="1" fill-rule="nonzero"/></g><g clip-path="url(#db30846ef4)"><path fill="#ce6914" d="M 18.875 27.824219 C 18.6875 27.824219 18.496094 27.824219 18.308594 27.636719 C 17.359375 27.257812 16.789062 26.3125 17.167969 25.175781 L 24.753906 2.480469 C 25.136719 1.535156 26.082031 0.96875 27.222656 1.347656 C 28.171875 1.726562 28.738281 2.671875 28.359375 3.804688 L 20.773438 26.5 C 20.394531 27.257812 19.632812 27.824219 18.875 27.824219 Z M 18.875 27.824219 " fill-opacity="1" fill-rule="nonzero"/></g><g clip-path="url(#09a0a1f7a2)"><path stroke-linecap="butt" transform="matrix(0.123022, 0, 0, 0.123022, 65.294804, 13.10218)" fill="none" stroke-linejoin="miter" d="M 68.919485 13.712008 C 76.222531 13.712008 82.795272 15.013855 88.701213 17.617549 C 94.607155 20.221244 99.465268 23.77751 103.2438 28.349851 C 107.022333 32.922193 109.467265 38.193087 110.610351 44.099028 C 110.896122 45.146857 111.023131 45.972418 111.023131 46.607466 C 111.023131 47.401275 110.86437 47.909313 110.546846 48.195085 C 110.261075 48.449103 109.689532 48.607865 108.895723 48.703122 L 85.811747 50.163732 C 84.922681 50.163732 84.351138 50.00497 84.097119 49.687446 C 83.8431 49.401675 83.557329 48.703122 83.271558 47.623542 C 82.509501 43.432229 81.048892 40.098229 78.921483 37.716801 C 76.825826 35.271869 73.745846 34.065279 69.713294 34.065279 C 64.505905 34.065279 60.505106 36.351449 57.679145 40.923791 C 54.884936 45.496133 53.45608 52.95794 53.45608 63.245709 C 53.45608 73.882754 54.757927 81.439819 57.329869 85.916903 C 59.933564 90.42574 63.997867 92.648406 69.554533 92.648406 C 74.222131 92.648406 78.22293 91.473569 81.525177 89.123893 C 84.827424 86.742465 87.558128 82.773419 89.749042 77.216753 C 90.003061 76.422944 90.765118 76.041915 92.00346 76.041915 C 92.606755 76.041915 93.114793 76.073668 93.464069 76.168925 L 109.975303 79.471172 C 111.27715 79.915705 111.94395 80.931781 111.94395 82.5194 C 111.94395 84.964332 110.419836 88.806369 107.403361 93.950254 C 104.355133 99.094138 99.62403 103.761737 93.146546 108.016555 C 86.669062 112.207868 78.508702 114.335277 68.633714 114.335277 C 59.330268 114.335277 51.138156 112.112611 44.08913 107.635526 C 37.040103 103.190194 31.610447 97.093739 27.76841 89.314407 C 23.958125 81.503324 22.052983 72.644412 22.052983 62.674167 C 22.052983 52.830931 23.958125 44.226038 27.76841 36.827735 C 31.610447 29.461185 37.071855 23.745757 44.152634 19.744958 C 51.233413 15.744159 59.48903 13.712008 68.919485 13.712008 Z M 167.002565 114.335277 C 157.413348 114.335277 148.998969 112.271373 141.822933 108.207069 C 134.646897 104.079261 129.121984 98.268576 125.279947 90.775016 C 121.406157 83.249704 119.469263 74.422544 119.469263 64.293538 C 119.469263 54.164531 121.43791 45.305619 125.343452 37.716801 C 129.280746 30.06448 134.805659 24.190291 141.949943 19.998977 C 149.125979 15.807664 157.476853 13.712008 167.002565 13.712008 C 176.43302 13.712008 184.688636 15.807664 191.801168 19.998977 C 198.9137 24.190291 204.438612 30.06448 208.375907 37.716801 C 212.281448 45.305619 214.250096 54.164531 214.250096 64.293538 C 214.250096 74.327287 212.313201 83.122695 208.439411 90.711512 C 204.565622 98.268576 199.072461 104.079261 191.928178 108.207069 C 184.815646 112.271373 176.496524 114.335277 167.002565 114.335277 Z M 167.002565 93.727987 C 170.876354 93.727987 173.956334 92.775416 176.242505 90.902026 C 178.528676 88.996884 180.211552 85.948656 181.25938 81.72559 C 182.307209 77.502525 182.846999 71.81885 182.846999 64.674566 C 182.846999 53.783502 181.608656 45.940666 179.131971 41.17781 C 176.687039 36.446707 172.622735 34.065279 167.002565 34.065279 C 161.287138 34.065279 157.159329 36.446707 154.619139 41.17781 C 152.142454 45.940666 150.904112 53.783502 150.904112 64.674566 C 150.904112 71.81885 151.41215 77.502525 152.459978 81.72559 C 153.539559 85.948656 155.222434 88.996884 157.540358 90.902026 C 159.890033 92.775416 163.033518 93.727987 167.002565 93.727987 Z M 244.351345 15.045607 C 254.829628 15.045607 261.338865 15.07736 263.879054 15.172617 C 281.057088 15.807664 294.043809 20.443511 302.839216 29.111908 C 311.634623 37.748554 316.048203 49.306418 316.048203 63.753747 C 316.048203 73.438221 314.047803 81.979609 310.078757 89.377912 C 306.10971 96.776215 300.235521 102.555147 292.392685 106.74646 C 284.549849 110.906021 275.024137 113.001677 263.752045 113.001677 L 229.046701 113.001677 C 227.713102 113.001677 226.728778 112.684154 226.125483 112.112611 C 225.522188 111.477564 225.204664 110.461488 225.204664 109.032631 L 225.204664 18.347854 C 225.204664 17.109511 225.458683 16.252197 225.998474 15.775912 C 226.506512 15.299626 227.459083 15.045607 228.792682 15.045607 Z M 256.512504 35.779907 C 256.067971 35.779907 255.718695 35.906916 255.496428 36.160935 C 255.305914 36.414954 255.178904 36.89124 255.178904 37.621544 L 255.178904 90.266979 C 255.178904 91.060788 255.305914 91.600578 255.559933 91.88635 C 255.845704 92.140369 256.32199 92.267378 257.020542 92.267378 L 257.973113 92.267378 C 266.673263 92.267378 273.277757 90.01296 277.818346 85.47237 C 282.358935 80.931781 284.613354 73.56523 284.613354 63.372719 C 284.613354 54.545559 282.898726 48.00457 279.469469 43.718 C 276.040213 39.367925 271.023338 36.922992 264.450597 36.287945 Z M 327.002772 18.093835 C 327.002772 16.061683 327.828333 15.045607 329.511209 15.045607 L 400.795286 15.045607 C 402.382905 15.045607 403.144962 15.966426 403.144962 17.808064 L 403.017952 33.14446 C 403.017952 35.525888 401.874867 36.700726 399.620448 36.700726 L 359.993487 36.700726 C 357.993088 36.700726 356.977012 37.526287 356.977012 39.177411 L 356.977012 50.417751 C 356.977012 51.275065 357.199278 51.973617 357.612059 52.481655 C 358.056592 52.95794 358.659887 53.211959 359.35844 53.211959 L 383.109214 53.211959 C 384.950852 53.211959 385.871671 54.069273 385.871671 55.815654 L 385.871671 72.199878 C 385.871671 73.69224 385.077862 74.454297 383.490243 74.454297 L 359.072668 74.454297 C 358.469373 74.454297 357.961335 74.644811 357.548554 74.994087 C 357.167526 75.343363 356.977012 75.787897 356.977012 76.295934 L 356.977012 89.504922 C 356.977012 90.203474 357.072269 90.711512 357.294535 90.965531 C 357.516802 91.21955 357.929583 91.346559 358.56463 91.346559 L 401.462086 91.346559 C 403.398981 91.346559 404.351552 92.172121 404.351552 93.854997 L 404.351552 110.112212 C 404.351552 110.969526 404.097533 111.69983 403.557743 112.239621 C 403.017952 112.747659 402.255895 113.001677 401.176315 113.001677 L 330.559037 113.001677 C 329.225438 113.001677 328.304619 112.747659 327.764829 112.239621 C 327.256791 111.69983 327.002772 110.842516 327.002772 109.699431 Z M 327.002772 18.093835 " stroke="#ce6914" stroke-width="4.9509" stroke-opacity="1" stroke-miterlimit="4"/></g><g fill="#ffffff" fill-opacity="1"><g transform="translate(48.608244, 13.362705)"><g><path d="M 7.015625 -7.71875 C 6.785156 -7.957031 6.539062 -8.144531 6.28125 -8.28125 C 6.019531 -8.414062 5.644531 -8.484375 5.15625 -8.484375 C 4.664062 -8.484375 4.300781 -8.410156 4.0625 -8.265625 C 3.820312 -8.117188 3.703125 -7.945312 3.703125 -7.75 C 3.703125 -7.414062 4.003906 -7.175781 4.609375 -7.03125 L 6.96875 -6.421875 C 7.832031 -6.203125 8.484375 -5.816406 8.921875 -5.265625 C 9.359375 -4.722656 9.578125 -4.078125 9.578125 -3.328125 C 9.578125 -2.617188 9.390625 -2.003906 9.015625 -1.484375 C 8.648438 -0.960938 8.125 -0.5625 7.4375 -0.28125 C 6.75 0 5.945312 0.140625 5.03125 0.140625 C 3.988281 0.140625 3.035156 -0.03125 2.171875 -0.375 C 1.316406 -0.71875 0.722656 -1.171875 0.390625 -1.734375 C 0.347656 -1.828125 0.328125 -1.898438 0.328125 -1.953125 C 0.328125 -2.046875 0.378906 -2.128906 0.484375 -2.203125 L 1.953125 -3.203125 C 2.054688 -3.273438 2.148438 -3.3125 2.234375 -3.3125 C 2.335938 -3.3125 2.421875 -3.269531 2.484375 -3.1875 C 2.804688 -2.769531 3.132812 -2.472656 3.46875 -2.296875 C 3.800781 -2.128906 4.238281 -2.046875 4.78125 -2.046875 C 5.3125 -2.046875 5.726562 -2.117188 6.03125 -2.265625 C 6.34375 -2.410156 6.5 -2.613281 6.5 -2.875 C 6.5 -3.050781 6.421875 -3.203125 6.265625 -3.328125 C 6.117188 -3.460938 5.898438 -3.566406 5.609375 -3.640625 L 3.453125 -4.15625 C 2.597656 -4.363281 1.921875 -4.753906 1.421875 -5.328125 C 0.921875 -5.898438 0.671875 -6.5625 0.671875 -7.3125 C 0.671875 -7.925781 0.847656 -8.488281 1.203125 -9 C 1.566406 -9.519531 2.078125 -9.929688 2.734375 -10.234375 C 3.398438 -10.535156 4.171875 -10.6875 5.046875 -10.6875 C 5.898438 -10.6875 6.6875 -10.546875 7.40625 -10.265625 C 8.132812 -9.984375 8.660156 -9.609375 8.984375 -9.140625 C 9.054688 -9.054688 9.09375 -8.976562 9.09375 -8.90625 C 9.09375 -8.84375 9.054688 -8.78125 8.984375 -8.71875 L 7.4375 -7.59375 C 7.394531 -7.5625 7.34375 -7.546875 7.28125 -7.546875 C 7.21875 -7.546875 7.128906 -7.601562 7.015625 -7.71875 Z M 7.015625 -7.71875 "/></g></g></g><g fill="#ffffff" fill-opacity="1"><g transform="translate(58.569047, 13.362705)"><g><path d="M 0.609375 0 C 0.535156 0 0.472656 -0.0234375 0.421875 -0.078125 C 0.378906 -0.128906 0.359375 -0.203125 0.359375 -0.296875 C 0.359375 -0.359375 0.367188 -0.4375 0.390625 -0.53125 L 3.828125 -10.21875 C 3.878906 -10.332031 3.929688 -10.410156 3.984375 -10.453125 C 4.046875 -10.503906 4.140625 -10.53125 4.265625 -10.53125 L 7.0625 -10.53125 C 7.175781 -10.53125 7.273438 -10.492188 7.359375 -10.421875 C 7.453125 -10.359375 7.519531 -10.269531 7.5625 -10.15625 L 10.984375 -0.484375 C 10.992188 -0.410156 11 -0.351562 11 -0.3125 C 11 -0.226562 10.976562 -0.15625 10.9375 -0.09375 C 10.90625 -0.03125 10.851562 0 10.78125 0 L 8 0 C 7.832031 0 7.726562 -0.078125 7.6875 -0.234375 L 7.125 -1.875 C 7.101562 -1.9375 7.078125 -1.976562 7.046875 -2 C 7.023438 -2.03125 6.984375 -2.046875 6.921875 -2.046875 L 3.90625 -2.046875 C 3.789062 -2.046875 3.71875 -1.992188 3.6875 -1.890625 L 3.109375 -0.21875 C 3.054688 -0.0703125 2.941406 0 2.765625 0 Z M 6.203125 -4.453125 C 6.304688 -4.453125 6.359375 -4.503906 6.359375 -4.609375 C 6.359375 -4.617188 6.347656 -4.664062 6.328125 -4.75 L 5.484375 -7.171875 C 5.460938 -7.222656 5.429688 -7.25 5.390625 -7.25 C 5.359375 -7.25 5.332031 -7.222656 5.3125 -7.171875 L 4.453125 -4.765625 C 4.429688 -4.722656 4.421875 -4.671875 4.421875 -4.609375 C 4.421875 -4.503906 4.476562 -4.453125 4.59375 -4.453125 Z M 6.203125 -4.453125 "/></g></g></g><g fill="#ffffff" fill-opacity="1"><g transform="translate(69.922372, 13.362705)"><g><path d="M 10.40625 -10.53125 C 10.582031 -10.53125 10.671875 -10.476562 10.671875 -10.375 C 10.671875 -10.34375 10.648438 -10.289062 10.609375 -10.21875 L 7.28125 -4.84375 C 7.21875 -4.75 7.175781 -4.644531 7.15625 -4.53125 C 7.144531 -4.414062 7.140625 -4.207031 7.140625 -3.90625 L 7.140625 -0.40625 C 7.140625 -0.257812 7.101562 -0.15625 7.03125 -0.09375 C 6.957031 -0.03125 6.835938 0 6.671875 0 L 4.296875 0 C 4.148438 0 4.050781 -0.0234375 4 -0.078125 C 3.945312 -0.140625 3.921875 -0.234375 3.921875 -0.359375 L 3.921875 -4.09375 C 3.921875 -4.226562 3.90625 -4.332031 3.875 -4.40625 C 3.84375 -4.488281 3.789062 -4.59375 3.71875 -4.71875 L 0.390625 -10.140625 C 0.359375 -10.203125 0.34375 -10.265625 0.34375 -10.328125 C 0.34375 -10.460938 0.445312 -10.53125 0.65625 -10.53125 L 3.515625 -10.53125 C 3.640625 -10.53125 3.734375 -10.507812 3.796875 -10.46875 C 3.859375 -10.4375 3.921875 -10.359375 3.984375 -10.234375 L 5.734375 -7.09375 C 5.785156 -6.988281 5.828125 -6.9375 5.859375 -6.9375 C 5.898438 -6.9375 5.941406 -6.984375 5.984375 -7.078125 L 7.703125 -10.234375 C 7.753906 -10.359375 7.8125 -10.4375 7.875 -10.46875 C 7.945312 -10.507812 8.050781 -10.53125 8.1875 -10.53125 Z M 10.40625 -10.53125 "/></g></g></g><g fill="#ffffff" fill-opacity="1"><g transform="translate(80.920463, 13.362705)"><g><path d="M 10.40625 -10.53125 C 10.582031 -10.53125 10.671875 -10.476562 10.671875 -10.375 C 10.671875 -10.34375 10.648438 -10.289062 10.609375 -10.21875 L 7.28125 -4.84375 C 7.21875 -4.75 7.175781 -4.644531 7.15625 -4.53125 C 7.144531 -4.414062 7.140625 -4.207031 7.140625 -3.90625 L 7.140625 -0.40625 C 7.140625 -0.257812 7.101562 -0.15625 7.03125 -0.09375 C 6.957031 -0.03125 6.835938 0 6.671875 0 L 4.296875 0 C 4.148438 0 4.050781 -0.0234375 4 -0.078125 C 3.945312 -0.140625 3.921875 -0.234375 3.921875 -0.359375 L 3.921875 -4.09375 C 3.921875 -4.226562 3.90625 -4.332031 3.875 -4.40625 C 3.84375 -4.488281 3.789062 -4.59375 3.71875 -4.71875 L 0.390625 -10.140625 C 0.359375 -10.203125 0.34375 -10.265625 0.34375 -10.328125 C 0.34375 -10.460938 0.445312 -10.53125 0.65625 -10.53125 L 3.515625 -10.53125 C 3.640625 -10.53125 3.734375 -10.507812 3.796875 -10.46875 C 3.859375 -10.4375 3.921875 -10.359375 3.984375 -10.234375 L 5.734375 -7.09375 C 5.785156 -6.988281 5.828125 -6.9375 5.859375 -6.9375 C 5.898438 -6.9375 5.941406 -6.984375 5.984375 -7.078125 L 7.703125 -10.234375 C 7.753906 -10.359375 7.8125 -10.4375 7.875 -10.46875 C 7.945312 -10.507812 8.050781 -10.53125 8.1875 -10.53125 Z M 10.40625 -10.53125 "/></g></g></g><g fill="#ffffff" fill-opacity="1"><g transform="translate(91.918554, 13.362705)"><g><path d="M 0.609375 0 C 0.535156 0 0.472656 -0.0234375 0.421875 -0.078125 C 0.378906 -0.128906 0.359375 -0.203125 0.359375 -0.296875 C 0.359375 -0.359375 0.367188 -0.4375 0.390625 -0.53125 L 3.828125 -10.21875 C 3.878906 -10.332031 3.929688 -10.410156 3.984375 -10.453125 C 4.046875 -10.503906 4.140625 -10.53125 4.265625 -10.53125 L 7.0625 -10.53125 C 7.175781 -10.53125 7.273438 -10.492188 7.359375 -10.421875 C 7.453125 -10.359375 7.519531 -10.269531 7.5625 -10.15625 L 10.984375 -0.484375 C 10.992188 -0.410156 11 -0.351562 11 -0.3125 C 11 -0.226562 10.976562 -0.15625 10.9375 -0.09375 C 10.90625 -0.03125 10.851562 0 10.78125 0 L 8 0 C 7.832031 0 7.726562 -0.078125 7.6875 -0.234375 L 7.125 -1.875 C 7.101562 -1.9375 7.078125 -1.976562 7.046875 -2 C 7.023438 -2.03125 6.984375 -2.046875 6.921875 -2.046875 L 3.90625 -2.046875 C 3.789062 -2.046875 3.71875 -1.992188 3.6875 -1.890625 L 3.109375 -0.21875 C 3.054688 -0.0703125 2.941406 0 2.765625 0 Z M 6.203125 -4.453125 C 6.304688 -4.453125 6.359375 -4.503906 6.359375 -4.609375 C 6.359375 -4.617188 6.347656 -4.664062 6.328125 -4.75 L 5.484375 -7.171875 C 5.460938 -7.222656 5.429688 -7.25 5.390625 -7.25 C 5.359375 -7.25 5.332031 -7.222656 5.3125 -7.171875 L 4.453125 -4.765625 C 4.429688 -4.722656 4.421875 -4.671875 4.421875 -4.609375 C 4.421875 -4.503906 4.476562 -4.453125 4.59375 -4.453125 Z M 6.203125 -4.453125 "/></g></g></g><g fill="#ffffff" fill-opacity="1"><g transform="translate(103.271879, 13.362705)"><g><path d="M 1.109375 0 C 0.992188 0 0.898438 -0.0351562 0.828125 -0.109375 C 0.765625 -0.179688 0.734375 -0.273438 0.734375 -0.390625 L 0.734375 -10.21875 C 0.734375 -10.320312 0.753906 -10.398438 0.796875 -10.453125 C 0.847656 -10.503906 0.925781 -10.53125 1.03125 -10.53125 L 5.015625 -10.53125 C 5.140625 -10.53125 5.226562 -10.515625 5.28125 -10.484375 C 5.332031 -10.453125 5.375 -10.382812 5.40625 -10.28125 L 6.890625 -5.765625 C 6.921875 -5.691406 6.953125 -5.65625 6.984375 -5.65625 C 7.015625 -5.65625 7.046875 -5.691406 7.078125 -5.765625 L 8.390625 -10.125 C 8.460938 -10.394531 8.59375 -10.53125 8.78125 -10.53125 L 12.875 -10.53125 C 13.050781 -10.53125 13.140625 -10.429688 13.140625 -10.234375 L 13.140625 -0.40625 C 13.140625 -0.257812 13.101562 -0.15625 13.03125 -0.09375 C 12.957031 -0.03125 12.84375 0 12.6875 0 L 10.28125 0 C 10.132812 0 10.035156 -0.0234375 9.984375 -0.078125 C 9.929688 -0.140625 9.90625 -0.234375 9.90625 -0.359375 L 9.90625 -6.734375 C 9.90625 -6.804688 9.890625 -6.84375 9.859375 -6.84375 C 9.804688 -6.84375 9.769531 -6.800781 9.75 -6.71875 L 7.703125 -0.25 C 7.628906 -0.0820312 7.515625 0 7.359375 0 L 5.859375 0 C 5.691406 0 5.582031 -0.0820312 5.53125 -0.25 L 3.484375 -6.609375 C 3.453125 -6.703125 3.414062 -6.75 3.375 -6.75 C 3.332031 -6.75 3.3125 -6.695312 3.3125 -6.59375 L 3.3125 -0.3125 C 3.3125 -0.1875 3.289062 -0.101562 3.25 -0.0625 C 3.21875 -0.0195312 3.132812 0 3 0 Z M 1.109375 0 "/></g></g></g></svg>